<?xml version="1.0" encoding="UTF-8"?>
<svg width="1200pt" height="1200pt" version="1.1" viewBox="0 0 1200 1200" xmlns="http://www.w3.org/2000/svg">
 <path d="m524.73 380.86c-21.059-4.0312-42.445 8.1602-61.211 15.949-21.926 9.1094-30.66-22.488-52.055-23.387-18.742-0.79297-32.039 11.652-25.836 30.672 1.6797 5.1719 10.129 1.8594 12.191-1.1758 7.1758-10.57 1.1055-16.523 10.055-3.8984 7.5469 10.645 35.102 22.789 47.363 20.496 12.48-2.3281 24.086-7.7539 35.676-12.781 5.0898-2.2188 13.703-7.2617 19.547-6.1797 5.3047 1.0078 8.7461 19.883 11.746 24.59 4.1523 6.4688 18.562 1.9688 21.215-3.875 7.6133-16.902 0.87109-36.652-18.691-40.41zm213.96-6.8164c2.1367 0.82813 16.309 6.6016 22.68-2.0898 4.8359-6.6016-7.3086-11.352-17.363-10.031-8.6406 1.1406-18.457 3.6133-24.098 10.824-9.625 12.336-16.105 34.703-31.922 40.465-0.66016 0.23828-9.4219 4.7539-6.0352 5.3047 39.422 6.4922 56.523-44.074 56.738-44.473zm-5.5195-2.3398c-1.8242-0.21484-2.0859-0.82812 0 0zm-131.68 75.902c12.047-7.4648 11.438-46.523 12.707-50.902 2.7344 1.2227 5.4375 3.0234 7.6211 4.2969 3.4453 2.0156 16.309-1.5 12.086-6.625-5.8672-7.1172-30.77-23.543-44.578 2.3984-4.2461 7.9922-10.945 45.66-5.9297 51.371 4.3398 4.9453 13.449 2.3281 18.094-0.53906zm248.04 55.715c2.5664-15.109 0.20313-32.016-8.6758-50.797 18.07-10.633 29.664-27.961 24.527-51.781-10.883-50.594-34.766-32.543-70.031-61.969-15.156-12.648-26.797-15.648-40.477-8.5664-9.9844-18.875-15.227-42.551-41.426-40.031-18.445 1.7656-22.957 17.555-23.16 33.371-0.19141 15.145 4.4141 28.656-11.688 10.094-6.4336-7.4141-11.652-14.867-19.754-20.52-7.5977-5.2812-16.309-2.8438-23.305 2.0273 0.67188-7.6914-1.5586-15.457-5.7969-22.57 14.484-14.496 28.246-33.336 35.281-52.668 2.4258-6.6602-13.453-2.6172-15.371-1.4023-5.207 3.2148-10.738 5.7734-16.246 8.3867 3.3125-9.8047 6.2891-19.57 11.617-28.727 2.5078-4.3086-6.5508-2.4102-8.1016-1.5234-14.051 8.2422-25.957 12.469-36.625-1.2969-2.9531-3.8047-4.9922-8.7969-6.1445-13.477-2.0273-8.2305-25.391-2.3281-25.727 5.1367-0.81641 18.086-1.5859 37.57 1.8477 55.691-9.4336 0.86328-18.625 3.8281-26.027 9.5898-16.008 12.422-14.723 31.57-9.2266 49.152-1.2227-0.12109-2.3516 0.023438-3.5273 0.023438-7.2734-14.004-20.258-25.176-35.242-31.02 1.7148-19.176-3.2539-42.73-11.258-60.086-2.7617-5.9883-17.734-1.8828-19.043 3.793-1.043 4.5234-2.5195 8.8906-4.043 13.262-3.3945-6.8984-6.5039-13.906-8.293-21.562-0.88672-3.7578-9.6016-0.49219-10.488 2.1016-2.9531 8.6172-10.754 31.969-23.148 30.121-4.2852-0.64844-8.5664-2.4844-12.266-4.7266-5.375-3.2539-29.039 3.5625-22.246 11.062 14.219 15.719 29.762 31.199 47.496 42.996-2.3867 4.3086-3.8516 9.1211-4.1406 14.293-7.9062-5.3984-19.668-8.2578-28.188-7.5703-19.586 1.5859-33.203 1.8008-37.117 23.375-2.3867 13.164-15.637-0.81641-24.156-5.293-10.992-5.7617-22.535-4.957-34.262-3.3594-17.109 2.3516-43.16 22.309-47.711 38.75-2.6523 9.5742 0.66016 18 6.5898 25.344-14.438 28.738-9.1914 55.691 6.625 76.812-15.84 11.41-22.262 26.746-21.098 42.098-132.84-2.2578-254.34 146.38-145.38 257.89 65.746 67.309 174.48 88.535 263.44 102.34 102.05 15.816 206.54 15.961 309.54 12.336 159.16-5.5938 360.73-33.613 444.8-188.99 78.359-144.82-189.65-183.66-272.38-192.11zm-253.67-267.65c11.039 2.1953 23.508-0.53906 34.668-6.707-4.6797 9.8516-10.246 19.234-15.73 28.738-3.7578 6.5039 9.8047 3.4805 12.07 2.2578 4.0664-2.1836 8.293-4.0547 12.539-5.8672-6.1328 8.9141-13.824 16.945-19.871 25.801-7.4297-6.9961-16.656-12.434-26.195-15.121 2.0156-9.4453 2.6172-19.238 2.5195-29.102zm-8.8672 41.387c28.922 7.5977 24.898 44.328 21.973 54.047-0.37109-0.625-9.4062-7.5352-14.328-7.8945-12.312-0.85156-26.195 3.6367-34.598 12.898-5.0508-5.5078-19.199-13.402-20.148-13.645 1.0938-27.754 13.383-54.273 47.102-45.406zm-74.629 51.098c-6.3945 4.957-11.352 12.18-14.23 20.652-6.2891-7.3672-13.008-16.441-26.352-14.641-10.945 1.5-19.262 2.2578-27.156-0.97266 0.81641-10.152 2.3633-33.18 24.91-36.266 18.555-2.5664 34.406 15.613 42.828 31.227zm-85.895-58.297c12.492-3.3242 20.074-10.488 23.891-20.387 1.8594 6.8398 3.4336 13.801 5.125 20.844 1.3555 5.6172 14.293 0.75781 15.625-3.1211 0.070312-0.21484 0.16797-0.42188 0.25391-0.64844 0.58984 6.6953 1.3555 13.297 3.0586 19.57-2.0156-0.046875-20.723 3-26.797 6.5898-6.1094-8.2773-13.5-15.742-21.156-22.848zm-149.48 207.46c23.316 25.043 61.812 39.758 96.359 35.82-1.2461 12.047-3.7188 31.344-4.4648 51.91-27.312-0.070313-89.543-16.766-99.098-52.586-3.3203-12.465 2.8008-23.793 7.2031-35.145zm3.1914-69.805c5.8672 4.1875 102 42.395 103.05 42.238-1.1289 0.60156-6.5273 33.012-7.957 45.742-8.4727-0.75781-50.723-3.0703-69.035-17.398-24.945-19.512-24.082-44.266-26.062-70.582zm94.703 216.21c-12.434-1.5-77.207-11.855-90.371-28.031-12.023-14.762-11.52-26.039-9.6602-41.543 25.02 19.656 62.328 31.066 93.887 28.801 0.375 14.566 2.0547 28.859 6.1445 40.773zm7.5391 14.871c5.6406 7.8945 13.285 13.414 23.867 14.977 15.395 2.2578 27.406-2.2305 36.973-10.523 29.258 7.2852 94.117 11.988 93.949 13.129-16.043 108.57-265.05 61.02-269.3-51.059 29.867 21.582 112.89 33.812 114.52 33.477zm157.56-121.37c1.4141 24.73 2.4102 49.57 2.0391 74.352-9.0234 0.66016-56.125-0.17969-70.633-2.7344 4.3672-17.172 10.934-63.121 13.164-70.871 20.895 7.7148 45.207 5.1602 55.43-0.74609zm-50.93-12.262c27.047-56.496 50.258 0.91016 50.281 1.3438-7.8711 7.8594-38.293-0.097657-50.281-1.3438zm52.562 101.34c-0.40625 10.477-1.043 20.953-2.125 31.391-10.824-1.3203-70.5-0.38281-89.062-2.1602 8.3164-10.32 14.305-23.855 18.59-38.113 20.695 9.543 49.219 12.902 72.598 8.8828zm552.77 78.996c-64.234 142.73-248.62 168.11-386.05 177.09-158.99 10.379-329.09 8.6875-479.88-47.711-71.734-26.832-154.91-81.516-141.1-168.72 12.203-77.027 96.684-112.88 164.48-122.63 2.6523 8.1484 7.3203 15.984 13.922 22.895-1.2734 0.625-25.234 27.227-6.0117 51.887-30.613 114.62 160.8 134.35 230.99 122.2 103.23-17.914 72.312-246.7 63.84-251.43-70.754-39.551-90.324 51.168-102.38 110.36-2.7617 13.586-14.137 67.777-35.641 62.062-20.137-5.3281-30.551-117.78-13.598-199.57 4.4648-21.492-121.99-21.793-124.64-68.629-2.7461-48.602 66.371-17.016 71.004-16.586 11.426 1.043 17.293 0.97266 27.059-5.1367 7.8359-4.8945 7.7656-15.742 9.0352-23.941 2.8438-18.395 42.562 18.984 50.762 20.184 19.645 2.8789 39.672-6.1445 50.508 16.488 3.4062 7.1055 38.375 4.5469 26.773-6.7188-3.6133-3.4922-8.6406-1.5117-12.156-5.1133 13.945 0.15625 16.078-10.824 19.789-14.316 0.70703-0.67188 49.188 35.363 59.785 14.867 4.7031-9.0977-13.273-8.4492-18.984-14.762 3.2539-0.19141 17.316-4.8477 17.855-3.8867 10.152 18.254 27.66 7.7539 28.031 7.3086 2.1602 2.6172 9.4688 0.82812 11.484-0.60156 4.3203-3.0703 7.6328-6.3828 10.176-9.8398 4.2227 0.66016 9.9961-0.25391 11.891-1.668 6.7188-4.9805 27.77 27.098 36.961 29.398 12.938 3.2539 35.746-1.2344 36.312-12.973 0.53906-11.375-3.6953-21.852-3.7422-33.371-0.046875-8.5781 26.219 37.441 45.445 32.172 16.32-4.4766 39.637 24.289 56.258 24.863 43.453 1.5469 38.426 69.156-19.008 85.008-29.09 8.0156-18.805 74.652-20.902 84.277-5.4258 24.875-44.566 31.922-52.223 5.7734-2.7852-9.5039 0.86328-97.812-65.27-76.68-3.0469-2.8555-13.234 0.3125-15 3.3711-32.27 55.68-41.062 224.99-27.59 238.89 36.191 37.332 165.36 1.4414 193.05-33.805 16.309-20.746 31.812-55.344 19.355-81.719 11.293-14.16 15.59-32.82 8.8086-57.539 5.0039-6.2383 9.0469-12.926 11.902-20.113 87.715 7.9961 310.93 30.109 248.7 168.35zm-309.84-72.277c-39.383 28.895-151.05 22.621-153.82 24.098 0.74219-12.215 2.0039-24.383 3.3828-36.434 61.164-5.0391 131.12-14.832 183.42-47.34-5.3398 23.219-11.219 43.715-32.988 59.676zm24.23-3.7188c1.2969 15.289-4.4766 32.629-10.43 45.359-23.387 50.016-164.3 67.465-167.73 16.02-0.63672-9.6602-0.5625-19.391-0.097656-29.16 0.23828 0 0.42188 0 0.67188-0.011719 38.82-2.207 130.84-0.76953 177.59-32.207zm-152.77-139.32c33.238-6.7695 38.578 12.84 41.41 36.574-16.094 0.68359-32.316 2.6172-48.227 4.668 2.6055-13.523 5.0508-27.059 6.8984-40.703 0.039062-0.22656-0.082032-0.33594-0.082032-0.53906zm42.504 46.414c-7.0664 51.098 40.043 55.777 45.504 55.945-35.676 7.8359-71.762 13.5-108.52 16.727 2.8555-23.629 7.6328-46.871 12.215-70.141 16.801 0.53125 34.297-1.4961 50.797-2.5312zm63.312 51.445c12.742-8.0625 24.324-28.512 22.477-58.453 8.4375-0.035157 39.109-4.668 46.367-5.9297-4.957 35.859-32.941 53.906-68.844 64.383zm24.574-68.531c4.4531-27.805 19.801-36.324 40.344-40.309 2.7344 10.402 4.2734 19.871 4.6445 28.477-15.238 2.2305-30.023 7.9805-44.988 11.832zm159.79 123.43c-13.285 2.3398 19.129 36.48-16.969 92.184-3.3477 5.1602 9.2266 5.7344 16.848 0.12109 28.945-21.312 38.234-99.047 0.12109-92.305zm57.59-18.348c-13.285 2.3398 19.129 36.48-16.969 92.172-3.3477 5.1719 9.2266 5.7461 16.848 0.13281 28.957-21.312 38.242-99.035 0.12109-92.305zm-842.21-7.7617c-44.473 21.301-72.781 81.648-40.727 124.99 4.2617 5.7617 22.789 0.75781 20.746-7.2734-5.0625-19.895-9.3945-37.055-5.9141-57.805 3.8047-22.535 18.742-39.492 33.395-55.766 4.4648-4.9648-4.4492-5.6133-7.5-4.1484zm690.07 197.4c-67.199 20.555-243.07 27.996-299.47 25.512-88.105-3.8633-173.12-22.703-260.35-31.824-3-0.30078-11.676 3.0352-7.1641 6.875 28.812 24.602 216.7 43.98 272.82 45.805 81.91 2.6875 265.14-12.047 300.62-34.367 9.4062-5.8906 2.0742-14.59-6.457-12zm-234.93-39.504c7.2461-3.6484 2.4609-10.152-4.2344-8.6641-28.117 6.1797-52.477 13.188-81.383 6.2148-17.699-4.2461-32.578-14.785-50.746-17.41-2.1719-0.3125-7.4883 1.9805-5.2422 4.8945 29 37.98 103.94 33.926 141.61 14.965z"/>
</svg>
